<?xml version="1.0" standalone="no"?>
<!DOCTYPE svg PUBLIC "-//W3C//DTD SVG 20010904//EN"
 "http://www.w3.org/TR/2001/REC-SVG-20010904/DTD/svg10.dtd">
<svg version="1.0" xmlns="http://www.w3.org/2000/svg"
 width="75.000000pt" height="75.000000pt" viewBox="0 0 75.000000 75.000000"
 preserveAspectRatio="xMidYMid meet">

<g transform="translate(0.000000,75.000000) scale(0.100000,-0.100000)"
fill="#000000" stroke="none">
<path d="M492 677 c-51 -30 -53 -33 -50 -71 3 -38 28 -66 28 -31 0 15 3 15 30
-2 17 -9 30 -25 30 -35 0 -10 7 -21 15 -24 9 -4 15 -19 15 -38 l1 -31 25 28
c19 23 28 26 39 17 10 -8 18 -8 34 2 18 11 21 23 21 83 l0 70 -59 33 c-32 17
-62 32 -67 31 -5 0 -33 -15 -62 -32z"/>
<path d="M248 602 c-42 -24 -48 -31 -48 -60 0 -20 4 -31 10 -27 6 3 10 15 10
25 0 11 12 26 30 35 36 19 41 19 34 0 -4 -8 -1 -15 5 -15 6 0 11 16 11 35 0
19 -1 35 -2 34 -2 0 -24 -12 -50 -27z"/>
<path d="M319 531 c-3 -17 -21 -34 -64 -57 -33 -19 -64 -35 -68 -37 -7 -2 17
-55 39 -85 1 -2 14 4 28 13 20 14 26 26 26 54 0 33 4 38 35 50 27 9 35 18 35
37 0 14 -4 23 -9 19 -5 -3 -11 3 -14 12 -3 14 -5 12 -8 -6z"/>
<path d="M457 441 c-9 -59 -10 -56 19 -65 15 -4 24 -2 27 8 4 9 -1 17 -13 21
-14 4 -20 17 -22 48 l-3 42 -8 -54z"/>
<path d="M510 445 c7 -8 20 -15 29 -15 13 1 13 3 -3 15 -26 19 -42 19 -26 0z"/>
<path d="M612 397 c-38 -38 -52 -60 -50 -76 3 -20 -12 -32 -92 -81 -52 -31
-94 -62 -93 -68 2 -7 -2 -12 -7 -12 -6 0 -10 7 -10 16 0 10 -5 14 -16 10 -8
-3 -13 -2 -10 2 7 12 -102 74 -116 66 -7 -5 -8 -3 -3 6 6 10 4 12 -8 7 -10 -4
-16 -2 -14 5 1 6 -4 13 -12 16 -8 2 -11 1 -8 -4 3 -6 -6 -9 -20 -8 -16 0 -31
10 -39 25 -12 22 -13 19 -14 -37 l0 -61 134 -76 c74 -43 138 -77 141 -77 4 0
67 34 141 76 l134 76 0 83 c0 69 3 85 20 100 23 21 24 26 7 48 -11 16 -17 12
-65 -36z"/>
<path d="M87 394 c-9 -10 4 -34 19 -34 16 0 16 2 8 24 -6 17 -16 20 -27 10z"/>
<path d="M355 351 c-3 -5 0 -13 6 -17 16 -10 -11 -25 -33 -18 -10 3 -18 1 -18
-4 0 -19 26 -29 75 -27 86 4 85 3 85 30 0 30 -13 31 -51 4 l-29 -21 -6 31 c-6
31 -18 39 -29 22z"/>
</g>
</svg>
